<?xml version="1.0" encoding="utf-8"?>
<!-- Generator: Adobe Illustrator 16.0.3, SVG Export Plug-In . SVG Version: 6.00 Build 0)  -->
<!DOCTYPE svg PUBLIC "-//W3C//DTD SVG 1.1//EN" "http://www.w3.org/Graphics/SVG/1.1/DTD/svg11.dtd">
<svg version="1.1" id="Layer_2" xmlns="http://www.w3.org/2000/svg" xmlns:xlink="http://www.w3.org/1999/xlink" x="0px" y="0px"
	 width="75px" height="65px" viewBox="14.499 13.5 75 65" enable-background="new 14.499 13.5 75 65" xml:space="preserve">
<g id="Layer_2_1_">
	<g>
		<g>
			<circle fill="#0B3D91" cx="51.256" cy="45" r="26.091"/>
		</g>
		<g>
			<circle fill="#FFFFFF" cx="49.716" cy="23.921" r="0.292"/>
			<circle fill="#FFFFFF" cx="52.719" cy="24.311" r="0.292"/>
			<circle fill="#FFFFFF" cx="56.657" cy="29.615" r="0.292"/>
			<circle fill="#FFFFFF" cx="35.052" cy="56.915" r="0.292"/>
			<circle fill="#FFFFFF" cx="35.813" cy="59.255" r="0.292"/>
			<circle fill="#FFFFFF" cx="32.186" cy="57.266" r="0.219"/>
			<circle fill="#FFFFFF" cx="44.08" cy="61.862" r="0.22"/>
			<circle fill="#FFFFFF" cx="62.736" cy="57.986" r="0.219"/>
			<circle fill="#FFFFFF" cx="68.158" cy="52.099" r="0.22"/>
			<circle fill="#FFFFFF" cx="41.584" cy="31.325" r="0.219"/>
			<circle fill="#FFFFFF" cx="47.551" cy="26.943" r="0.219"/>
			<circle fill="#FFFFFF" cx="46.903" cy="26.514" r="0.219"/>
			<circle fill="#FFFFFF" cx="46.318" cy="26.085" r="0.219"/>
			<circle fill="#FFFFFF" cx="42.52" cy="32.457" r="0.219"/>
			<circle fill="#FFFFFF" cx="51.31" cy="21.054" r="0.219"/>
			<circle fill="#FFFFFF" cx="52.753" cy="27.372" r="0.219"/>
			<circle fill="#FFFFFF" cx="50.477" cy="26.138" r="0.219"/>
			<circle fill="#FFFFFF" cx="46.576" cy="27.816" r="0.219"/>
			<circle fill="#FFFFFF" cx="63.776" cy="63.773" r="0.219"/>
			<circle fill="#FFFFFF" cx="34.681" cy="58.396" r="0.22"/>
			<circle fill="#FFFFFF" cx="49.93" cy="61.224" r="0.22"/>
			<circle fill="#FFFFFF" cx="39.219" cy="58.221" r="0.219"/>
			<circle fill="#FFFFFF" cx="41.117" cy="61.317" r="0.22"/>
			<circle fill="#FFFFFF" cx="55.078" cy="59.367" r="0.219"/>
			<circle fill="#FFFFFF" cx="62.775" cy="55.023" r="0.219"/>
			<circle fill="#FFFFFF" cx="68.611" cy="57.689" r="0.219"/>
			<circle fill="#FFFFFF" cx="70.601" cy="58.961" r="0.219"/>
			<circle fill="#FFFFFF" cx="70.927" cy="55.491" r="0.219"/>
			<circle fill="#FFFFFF" cx="41.911" cy="50.577" r="0.219"/>
			<circle fill="#FFFFFF" cx="41.994" cy="55.608" r="0.292"/>
			<circle fill="#FFFFFF" cx="43.749" cy="59.313" r="0.292"/>
			<circle fill="#FFFFFF" cx="64.77" cy="55.452" r="0.292"/>
			<circle fill="#FFFFFF" cx="72.336" cy="55.023" r="0.292"/>
			<circle fill="#FFFFFF" cx="68.593" cy="53.424" r="0.293"/>
			<circle fill="#FFFFFF" cx="64.77" cy="53.58" r="0.293"/>
			<path fill="#FFFFFF" d="M56.886,23.737l0.728-0.069l-0.726-0.041c-0.023-0.141-0.136-0.25-0.277-0.269l-0.07-0.724l-0.041,0.73
				c-0.131,0.029-0.232,0.139-0.248,0.276l-0.744,0.067l0.75,0.041c0.027,0.125,0.127,0.223,0.256,0.247l0.067,0.746l0.039-0.745
				C56.754,23.973,56.86,23.87,56.886,23.737z"/>
			<path fill="#FFFFFF" d="M44.61,31.835l0.727-0.069l-0.726-0.041c-0.022-0.141-0.135-0.25-0.277-0.269l-0.069-0.724l-0.041,0.73
				c-0.132,0.029-0.233,0.139-0.249,0.276l-0.744,0.067l0.749,0.041c0.027,0.125,0.129,0.223,0.256,0.247l0.067,0.747l0.041-0.745
				C44.479,32.071,44.585,31.968,44.61,31.835z"/>
			<path fill="#FFFFFF" d="M71.803,53.244l0.728-0.068l-0.727-0.042c-0.021-0.14-0.135-0.25-0.276-0.268l-0.069-0.726l-0.041,0.73
				c-0.132,0.029-0.232,0.14-0.249,0.276l-0.743,0.067l0.748,0.041c0.028,0.125,0.13,0.223,0.257,0.246l0.067,0.746l0.041-0.744
				C71.671,53.48,71.777,53.378,71.803,53.244z"/>
			<path fill="#FFFFFF" d="M42.153,64.439l0.728-0.07l-0.726-0.041c-0.022-0.141-0.135-0.25-0.277-0.268l-0.069-0.725l-0.041,0.73
				c-0.132,0.029-0.233,0.139-0.249,0.275l-0.744,0.066l0.749,0.041c0.027,0.126,0.128,0.225,0.256,0.247l0.068,0.747l0.04-0.746
				C42.021,64.676,42.128,64.571,42.153,64.439z"/>
			<path fill="#FFFFFF" d="M69.492,58.979l0.728-0.069l-0.727-0.04c-0.022-0.141-0.135-0.251-0.276-0.27l-0.069-0.725l-0.041,0.73
				c-0.132,0.029-0.232,0.139-0.249,0.275l-0.743,0.067l0.748,0.041c0.028,0.125,0.129,0.224,0.257,0.246l0.067,0.747l0.041-0.746
				C69.36,59.216,69.467,59.111,69.492,58.979z"/>
		</g>
		<g>
			<g>
				<path fill="#FC3D21" d="M57.443,38.75c-3.033,1.18-5.992,2.232-8.489,3.013c-5.073,1.588-18.954,5.889-27.339,11.31l0.702,0.272
					c5.109-2.885,8.43-3.793,11.623-4.797c3.471-1.092,14.692-3.718,19.773-5.147c1.716-0.483,3.727-1.116,5.856-1.885
					c-0.496-0.691-1.018-1.384-1.568-2.075C57.817,39.207,57.632,38.977,57.443,38.75z M61.15,43.859
					C60.415,44.354,59.8,44.75,59.369,45c-2.496,1.443-14.665,9.75-17.433,11.66c-2.768,1.912-10.452,9.166-12.714,11.271
					l-0.078,0.858c7.293-6.552,9.581-8.169,12.48-10.374c3.588-2.73,11.01-7.78,13.533-9.398c2.412-1.548,4.586-2.97,6.538-4.272
					c-0.031-0.053-0.063-0.106-0.095-0.161C61.452,44.344,61.303,44.102,61.15,43.859z M72.551,31.818
					c-3.554,2.083-9.153,4.596-14.586,6.729c0.13,0.159,0.259,0.32,0.388,0.481c0.607,0.765,1.18,1.534,1.719,2.304
					c4.271-1.573,8.957-3.684,12.675-6.239c-1.771,1.678-7.628,6.055-11.198,8.495c0.185,0.299,0.363,0.599,0.535,0.897
					c5.408-3.62,9.049-6.284,11.17-8.066c2.925-2.457,9.594-7.956,12.129-15.327C80.935,26.748,75.679,29.984,72.551,31.818z"/>
			</g>
		</g>
		<path fill="#FFFFFF" d="M47.899,51.461c-0.575-0.725-1.371-1.694-1.968-2.447c-0.799-1.005-1.538-2.021-2.215-3.036
			c-0.221,0.056-0.441,0.111-0.662,0.166c0.817,1.276,1.726,2.55,2.715,3.795c0.723,0.91,1.38,1.643,1.717,2.098
			c0.068,0.093,0.203,0.297,0.386,0.568c0.211-0.143,0.423-0.287,0.638-0.433C48.302,51.947,48.097,51.71,47.899,51.461z
			 M52.098,55.271c-0.473-0.446-1.619-1.193-2.812-2.314c-0.263,0.181-0.529,0.364-0.795,0.549c0.77,1.086,1.819,2.418,2.641,2.808
			C52.37,56.899,52.703,55.846,52.098,55.271z M58.353,39.028c-6.819-8.583-15.15-13.299-18.742-10.445
			c-2.79,2.216-1.645,8.694,2.201,15.499c0.199-0.068,0.396-0.135,0.591-0.201c-3.881-6.63-4.943-12.792-2.312-14.882
			c3.307-2.627,11.291,2.106,17.913,10.441c1.371,1.725,2.576,3.457,3.596,5.145c3.908,6.467,5.107,12.316,2.407,14.705
			c-0.825,0.729-3.351,1.017-6.657-0.473c-0.047,0.059,0.027,0.215,0.086,0.254c2.854,1.147,5.588,1.585,6.97,0.488
			C67.722,56.922,65.173,47.613,58.353,39.028z"/>
		<g>
			<path fill="#FFFFFF" d="M29.104,40.047h4.368l3.666,6.221c0,0,0-4.504,0-4.855c0-0.546-0.692-1.258-0.936-1.365
				c0.292,0,2.847,0,3.022,0c-0.186,0.049-0.78,0.771-0.78,1.365c0,0.292,0,6.825,0,7.137c0,0.439,0.634,1.043,0.936,1.277h-4.212
				l-3.725-6.25c0,0,0,4.661,0,4.914c0,0.488,0.478,0.955,0.975,1.355h-3.217c0.458-0.195,0.896-0.809,0.936-1.297
				c0.039-0.487,0-6.776,0-7.049C30.138,40.905,29.563,40.418,29.104,40.047z"/>
			<path fill="#FFFFFF" d="M69.06,49.826h5.811c-0.321-0.078-0.682-0.459-0.877-0.965c-0.194-0.508-3.275-8.814-3.275-8.814h-2.21
				c-0.626,0.452-1.298,0.927-2.015,1.428c-0.002,0.018-0.004,0.036-0.007,0.054c-0.097,0.585-1.825,6.847-1.931,7.156
				c-0.146,0.43-0.897,0.906-1.199,1.16h3.13c-0.313-0.352-0.566-0.691-0.507-1.082c0.058-0.391,0.234-1.17,0.234-1.17h3.236
				c0.146,0.39,0.256,0.74,0.312,1.072C69.83,49.066,69.421,49.515,69.06,49.826z M66.505,46.346l1.092-3.568l1.443,3.568H66.505z
				 M66.013,40.403c0.161-0.118,0.322-0.237,0.482-0.356h-0.848C65.731,40.125,65.872,40.248,66.013,40.403z"/>
			<path fill="#FFFFFF" d="M43.788,48.764c0.058-0.391,0.234-1.17,0.234-1.17h3.237c0.146,0.39,0.255,0.74,0.312,1.072
				c0.068,0.4-0.341,0.849-0.702,1.16h5.116c0.107-0.072,0.213-0.143,0.319-0.214c-0.199-0.175-0.381-0.438-0.501-0.751
				c-0.195-0.508-3.276-8.814-3.276-8.814h-5.07c0.244,0.225,0.946,0.829,0.839,1.482c-0.096,0.585-1.826,6.847-1.931,7.156
				c-0.146,0.43-0.897,0.906-1.199,1.16h3.13C43.983,49.494,43.729,49.154,43.788,48.764z M45.406,42.777l1.443,3.568h-2.535
				L45.406,42.777z"/>
			<path fill="#FFFFFF" d="M61.46,44.901c-0.953,0.636-1.96,1.3-3.021,1.992c0.477,0.23,0.855,0.521,0.891,0.896
				c0.068,0.703-1.346,1.043-2.622,0.896c-0.255-0.029-0.507-0.097-0.745-0.186c-0.266,0.17-0.533,0.343-0.805,0.518
				c-0.276,0.178-0.611,0.396-0.994,0.647v1.01c0.253-0.497,0.808-0.942,1.238-0.966c0.186-0.01,0.829,0.585,3.481,0.439
				c1.287-0.071,3.773-1.443,3.733-3.023C62.593,46.192,62.104,45.464,61.46,44.901z M54.162,47.34v1.028
				c0.235-0.156,0.466-0.311,0.693-0.461C54.498,47.659,54.245,47.428,54.162,47.34z M60.554,44.256
				c-0.246-0.146-0.497-0.274-0.736-0.388c-1.248-0.585-2.555-0.692-2.828-1.482c-0.192-0.557,0.352-1.072,1.678-1.053
				s2.554,0.809,2.886,1.092V39.91c-0.098,0.097-0.525,0.588-0.917,0.507c-0.75-0.156-2.028-0.359-3.49-0.351
				c-1.678,0.01-3.12,1.306-3.169,2.944c-0.068,2.292,1.765,2.916,2.798,3.276c0.107,0.038,0.229,0.078,0.36,0.119
				c0.991-0.645,1.775-1.141,2.234-1.406C59.677,44.822,60.081,44.567,60.554,44.256z"/>
		</g>
	</g>
</g>
</svg>
